<svg id="Layer_1" data-name="Layer 1" xmlns="http://www.w3.org/2000/svg" xmlns:xlink="http://www.w3.org/1999/xlink" viewBox="0 0 800 800"><defs><style>.cls-1{fill:#d5d6d5;}.cls-2{fill:url(#linear-gradient);}.cls-3{fill:url(#linear-gradient-2);}.cls-4{fill:url(#linear-gradient-3);}.cls-5{fill:#060d18;}</style><linearGradient id="linear-gradient" x1="257.93" y1="3473.01" x2="542.34" y2="3473.01" gradientTransform="matrix(1, 0, 0, -1, 0, 4108)" gradientUnits="userSpaceOnUse"><stop offset="0" stop-color="#dfff8f"/><stop offset="1" stop-color="#c98b07"/></linearGradient><linearGradient id="linear-gradient-2" x1="62.45" y1="3438.14" x2="737.8" y2="3438.14" xlink:href="#linear-gradient"/><linearGradient id="linear-gradient-3" x1="417.75" y1="-3.69" x2="417.75" y2="598.5" gradientTransform="translate(-19.34 -296.62)" xlink:href="#linear-gradient"/></defs><rect class="cls-1" x="334.46" y="299.13" width="131.33" height="353.51" rx="40.4"/><ellipse class="cls-1" cx="633.51" cy="593.62" rx="65.64" ry="65.69" transform="translate(-234.2 621.82) rotate(-45)"/><rect class="cls-1" x="62.45" y="584.63" width="675.35" height="215.37" rx="40.4"/><rect class="cls-2" x="257.93" y="534.47" width="284.41" height="201.04"/><rect class="cls-3" x="62.45" y="584.54" width="675.35" height="170.65" rx="40.4"/><circle class="cls-4" cx="400.13" cy="194.15" r="193.66"/><ellipse class="cls-5" cx="595.79" cy="669.86" rx="27.94" ry="27.97" transform="translate(-299.16 617.48) rotate(-45)"/><ellipse class="cls-5" cx="671.22" cy="669.86" rx="27.94" ry="27.97" transform="translate(-277.07 670.82) rotate(-45)"/><rect class="cls-5" x="101.08" y="641.9" width="196.3" height="55.9" rx="20.76"/><path class="cls-1" d="M284.16,141.16a102.43,102.43,0,0,1,20.43-32.32,93.26,93.26,0,0,1,29.82-21.49,18,18,0,1,0-14.8-32.71h0a129.25,129.25,0,0,0-41.22,29.68,137.85,137.85,0,0,0-27.58,43.62,17.95,17.95,0,1,0,32.84,14.48c.18-.4.34-.81.48-1.22Z"/></svg>