<svg id="Layer_1" data-name="Layer 1" xmlns="http://www.w3.org/2000/svg" xmlns:xlink="http://www.w3.org/1999/xlink" viewBox="0 0 800 800"><defs><style>.cls-1{fill:url(#linear-gradient);}.cls-2{fill:url(#linear-gradient-2);}.cls-3{fill:#060d18;}.cls-4{fill:url(#linear-gradient-3);}.cls-5{fill:#d5d6d5;}.cls-6{fill:#d5d6d5;}</style><linearGradient id="linear-gradient" x1="-0.66" y1="399.98" x2="799.57" y2="399.98" gradientUnits="userSpaceOnUse"><stop offset="0" stop-color="#dfff8f"/><stop offset="1" stop-color="#c98b07"/></linearGradient><linearGradient id="linear-gradient-2" x1="399.46" y1="741.65" x2="399.46" y2="49.72" xlink:href="#linear-gradient"/><linearGradient id="linear-gradient-3" x1="399.67" y1="118.32" x2="399.67" y2="675.68" xlink:href="#linear-gradient"/></defs><title>Casino</title><g id="Page-1"><g id="_028---Web-Browser-Roulette" data-name="028---Web-Browser-Roulette"><path id="Path" class="cls-1" d="M769.18,247.05C690.51,56.9,480.41-42.57,283.47,17.11S-33,276.13,7.07,478,233.86,818.31,438.66,798.17,799.57,605.79,799.57,400a398.63,398.63,0,0,0-30.39-152.95Z"/><path id="Path-2" data-name="Path" class="cls-2" d="M721.47,266.79C653,101.16,470,14.53,298.43,66.51S22.77,292.11,57.7,467.91,255.22,764.34,433.6,746.79,747.94,579.24,747.94,400a347.19,347.19,0,0,0-26.47-133.21Z"/><path id="Path-3" data-name="Path" class="cls-3" d="M158.32,500,77.87,533.21A345.67,345.67,0,0,1,51.4,400h87.07a258.5,258.5,0,0,0,19.85,100Z"/><path id="Path-4" data-name="Path" class="cls-3" d="M299.72,641.35,266.46,721.8a347.19,347.19,0,0,1-113-75.57l61.64-61.64a259.46,259.46,0,0,0,84.63,56.77Z"/><path id="Path-5" data-name="Path" class="cls-3" d="M532.88,721.8a345.67,345.67,0,0,1-133.21,26.47V661.2a258.5,258.5,0,0,0,100-19.85Z"/><path id="Path-6" data-name="Path" class="cls-3" d="M721.47,533.21a347.19,347.19,0,0,1-75.57,113l-61.64-61.64A262.16,262.16,0,0,0,641,500Z"/><path id="Path-7" data-name="Path" class="cls-3" d="M747.94,400H660.87A258.5,258.5,0,0,0,641,300l80.45-33.26A345.67,345.67,0,0,1,747.94,400Z"/><path id="Path-8" data-name="Path" class="cls-3" d="M645.9,153.77l-61.47,61.47-.17.17a259.46,259.46,0,0,0-84.63-56.77L532.88,78.2A347.19,347.19,0,0,1,645.9,153.77Z"/><path id="Path-9" data-name="Path" class="cls-3" d="M399.67,51.73V138.8a261.64,261.64,0,0,0-100,19.68L266.46,78.2A345.67,345.67,0,0,1,399.67,51.73Z"/><path class="cls-4" d="M653.07,336.6a262.15,262.15,0,0,0-153.26-178l-.12.12h0q-2.77-1.15-5.56-2.23a249,249,0,0,0-36.81-11.25l-.87-.19c-1.73-.38-3.45-.76-5.19-1.1a263.52,263.52,0,0,0-151.52,14.58v.17h0l-.1-.1q-11.36,4.74-22.19,10.51l-.47.25q-3.19,1.71-6.33,3.5c-1.14.65-2.26,1.32-3.39,2-.94.55-1.88,1.11-2.81,1.67q-1.74,1.06-3.47,2.15c-1.15.73-2.3,1.47-3.44,2.21-.8.52-1.6,1-2.4,1.57A261.63,261.63,0,0,0,215,215.32,258.49,258.49,0,0,0,186.49,249l-.08.12c-.85,1.2-1.67,2.41-2.5,3.62A249,249,0,0,0,158.32,300h-.17a261.64,261.64,0,0,0-19.68,100,258.5,258.5,0,0,0,19.85,100c.4,1,.83,1.92,1.24,2.88l.62,1.44q1.14,2.61,2.34,5.19A260.32,260.32,0,0,0,285.12,634.75l1.81.87c2,.95,4,1.88,6,2.77,1.47.66,2.94,1.29,4.42,1.92.8.34,1.59.71,2.39,1l1.53.61a260.35,260.35,0,0,0,185.92,4.15l.69-.24c1.41-.51,2.83-1,4.23-1.56,2.54-1,5.08-1.93,7.6-3A261.57,261.57,0,0,0,641,500q3.69-9,6.69-18.15A261.59,261.59,0,0,0,653.07,336.6Z"/><path id="Path-10" data-name="Path" class="cls-5" d="M310,266.77a43.53,43.53,0,0,1-86.37,7.84,38.61,38.61,0,0,1-.7-7.84,43.39,43.39,0,0,1,43.53-43.53,38.61,38.61,0,0,1,7.84.7A43.41,43.41,0,0,1,310,266.77Z"/><path id="Path-11" data-name="Path" class="cls-6" d="M539,417.41H434.5a17.41,17.41,0,0,1,0-34.83H539a17.41,17.41,0,1,1,0,34.83Z"/><path id="Path-12" data-name="Path" class="cls-5" d="M364.84,417.41H260.36a17.41,17.41,0,1,1,0-34.83H364.84a17.41,17.41,0,0,1,0,34.83Z"/><path id="Path-13" data-name="Path" class="cls-5" d="M399.67,556.72a17.41,17.41,0,0,1-17.41-17.41V434.83a17.41,17.41,0,0,1,34.83,0V539.31A17.41,17.41,0,0,1,399.67,556.72Z"/><path id="Path-14" data-name="Path" class="cls-5" d="M399.67,382.59a17.41,17.41,0,0,1-17.41-17.41V260.69a17.41,17.41,0,0,1,34.83,0V365.17A17.41,17.41,0,0,1,399.67,382.59Z"/><circle id="Oval" class="cls-5" cx="399.67" cy="400" r="52.24"/><circle id="Oval-2" data-name="Oval" class="cls-5" cx="242.95" cy="400" r="34.83"/><circle id="Oval-3" data-name="Oval" class="cls-5" cx="556.39" cy="400" r="34.83"/><circle id="Oval-4" data-name="Oval" class="cls-5" cx="399.67" cy="243.28" r="34.83"/><circle id="Oval-5" data-name="Oval" class="cls-5" cx="399.67" cy="556.72" r="34.83"/></g></g><path class="cls-3" d="M201.49,201.81l-48-48a347.19,347.19,0,0,0-75.57,113L158.15,300h.17a249,249,0,0,1,33.09-57.64S207,223,215,215.32Z"/></svg>