<svg version="1.1" viewBox="0 0 800 800" xml:space="preserve" xmlns="http://www.w3.org/2000/svg">
<style type="text/css">
	.st0{fill:none;}
	.st1{fill:#060d18;}
	.st2{fill:#d5d6d5;}
	.st3{fill:url(#a);}
</style>
<g transform="matrix(2.8189 0 0 2.8189 -.74414 0)">
	
		<path class="st0" d="m133.4 117.2c-1.1-5.2-1.9-10.2-2.8-15.4-19.8-0.6-25.2 2.1-26.3 2.9-1.5 1.1-2.3 2.9-2.4 5-0.6 5.5 1.5 10.2 4.4 14.6 4.2 6.7 9.6 12.2 15.6 17.4 1.9 1.6 17.9 14.6 29.6 17.9-2.1-3.4-4.2-6.8-6.2-10.2-5.9-10.1-9.6-21-11.9-32.2z"/>
		<path class="st0" d="m272 109.6c-0.2-2.1-1-3.9-2.4-5-1.1-0.8-6.7-3.6-26.3-2.9-1.5 10.9-3.9 21.4-7.6 31.8-3.2 9.3-7.6 17.9-13 26 11.7-3.2 27.5-16.1 29.4-17.9 6-5 11.4-10.7 15.6-17.4 0.6-1.1 1.3-2.3 1.9-3.4 0.3-0.6 0.6-1.3 1-1.9 0.6-1.6 1.1-3.2 1.5-5v-0.8-0.6-1.5-1.1c-0.1-0.1-0.1-0.1-0.1-0.3z"/>
		<path class="st1" d="m209 250h-22.1-22.1-1.1c-1.1 0.2-1.8 0.8-1.8 1.9v4.4c0 1.1 0.6 1.8 1.8 1.9h1.1 43.5 1.3c1.3-0.2 2.1-0.8 2.1-2.1v-3.2c0.2-2.3-0.5-2.9-2.7-2.9z"/>
		<path class="st2" d="m283.4 107c-0.6-4.4-2.4-8.1-5.7-10.9l-0.2-0.2c-0.3-0.2-0.6-0.5-1-0.6-0.6-0.5-1.1-0.8-1.8-1.3-2.4-1.5-4.9-2.3-7.5-3.1-7.6-2.1-17.1-3.1-22.6-3.4 0.2-2.3 0.3-4.7 0.3-7 0.2-3.4-1.3-4.9-4.7-4.9h-53.3-53.6c-2.9 0-4.5 1.6-4.5 4.5 0.2 2.4 0.2 5 0.3 7.5-5.5 0.3-14.9 1.3-22.6 3.4-2.6 0.6-5.2 1.6-7.5 3.1-4.1 2.4-6.8 5.8-8 10.6-1.3 5.2-1.3 10.4 0.5 15.4 2.3 7.1 6.5 13.3 11.4 19 8.4 10.1 18.5 18.2 29.6 25l0.2 0.2c1.6 1 3.1 1.9 4.7 2.8 8.6 5.2 26.2 15.6 31.8 19.8 2.8 4.5 4.5 9.4 5.4 14.6 0.3 2.1 1.3 12.2-1.9 19.7-4.2 9.7-11.9 15.4-22.7 17.4-2.8 0.5-3.9 1.8-3.9 4.5v22.4c0 3.1 1.5 4.5 4.5 4.5h36.4 36.4c3.2 0 4.5-1.5 4.5-4.5v-22.3c0-2.8-1.1-4.1-3.9-4.5-11-1.8-18.5-7.6-22.7-17.5-3.1-7.1-2.1-16.9-1.9-19.3 0.6-5 2.3-9.7 5-14 0.2-0.3 0.5-0.6 0.6-1 4.9-3.6 17.2-11 26.2-16.4 9.3-4.7 17.9-10.2 25.8-16.9 8-6.7 15.1-14 20.6-22.7 2.4-3.9 4.4-7.8 5.4-12 0-0.2 0.2-0.3 0.2-0.5v-0.3c0.3-1.3 0.5-2.8 0.6-4.1v-0.5-1c-0.1-2.1-0.3-3.7-0.4-5.5zm-161.8 34.8c-6-5-11.4-10.7-15.6-17.4-2.8-4.4-4.9-9.1-4.4-14.6 0.2-2.1 1-3.9 2.4-5 1.1-0.8 6.7-3.7 26.3-2.9 0.8 5.2 1.6 10.4 2.8 15.4 2.4 11.2 6 22.1 11.7 32.2 1.9 3.4 4.1 6.8 6.2 10.2-11.6-3.3-27.3-16.3-29.4-17.9zm90.3 114.3c0 1.3-0.6 2.1-2.1 2.1h-1.3-43.5-1.1c-1.1-0.2-1.8-0.8-1.8-1.9v-4.4c0-1.1 0.6-1.8 1.8-1.9h1.1 22.1 22.1c2.3 0 2.8 0.5 2.8 2.9-0.1 1.1-0.1 2.1-0.1 3.2zm60.1-143.6v0.6 0.8c-0.2 1.8-0.8 3.4-1.5 5-0.3 0.6-0.6 1.3-1 1.9-0.6 1.1-1.3 2.3-1.9 3.4-4.2 6.7-9.6 12.2-15.6 17.4-1.9 1.6-17.7 14.5-29.4 17.9 5.4-8.1 9.7-16.7 13-26 3.7-10.4 6.2-21.1 7.6-31.8 19.7-0.6 25.2 2.1 26.3 2.9 1.5 1.1 2.3 2.9 2.4 5v0.2 1.1c0.1 0.7 0.1 1.1 0.1 1.6z"/>
	
	
		<path class="st0" d="m38.1 119.1c-1-4.5-1.8-9-2.4-13.5-17.2-0.6-22.1 1.8-23 2.6-1.3 1-1.9 2.6-2.1 4.4-0.5 4.8 1.3 8.9 3.7 12.7 3.7 5.8 8.4 10.6 13.5 15.1 1.8 1.5 15.6 12.7 25.8 15.6-1.9-2.9-3.7-6-5.5-8.9-4.8-8.7-7.9-18.2-10-28z"/>
		<path class="st0" d="m158.8 112.6c-0.2-1.9-1-3.4-2.1-4.4-1-0.6-5.8-3.2-22.9-2.6-1.3 9.5-3.4 18.7-6.6 27.9-2.9 8.1-6.6 15.5-11.3 22.6 10.2-2.9 23.9-14 25.6-15.5 5.2-4.5 9.8-9.3 13.5-15.1 0.6-1 1.1-1.9 1.8-2.9 0.3-0.5 0.5-1.1 0.8-1.8 0.6-1.5 1-2.9 1.3-4.5v-0.8-0.5-1.3-1l-0.1-0.1z"/>
		<path class="st1" d="m104 235h-19.3-19.3-1c-1 0.2-1.5 0.6-1.5 1.6v3.9c0 1 0.6 1.6 1.6 1.6h1.1 38 1.1c1.1-0.2 1.8-0.6 1.8-1.9v-2.9c0-1.9-0.5-2.3-2.5-2.3z"/>
		<path class="st2" d="m168.8 110.2c-0.6-3.9-2.1-7.1-4.8-9.3l-0.2-0.2c-0.3-0.2-0.5-0.5-0.8-0.6-0.5-0.3-1-0.8-1.6-1.1-2.1-1.3-4.4-2.1-6.6-2.6-6.6-1.8-14.8-2.6-19.7-3.1 0.2-2.1 0.2-4 0.3-6.1 0.2-2.9-1.1-4.4-4.2-4.4h-46.4-46.7c-2.6 0-4 1.3-3.9 3.9 0.2 2.1 0.2 4.4 0.3 6.4-4.8 0.3-13.1 1.1-19.8 3.1-2.3 0.6-4.5 1.5-6.6 2.6-3.5 2.1-6 5.2-6.9 9.2-1.1 4.5-1.1 9 0.3 13.5 2.1 6.3 5.6 11.6 9.8 16.6 7.4 8.7 16.1 15.8 25.8 21.8l0.2 0.2c1.5 0.8 2.7 1.6 4.2 2.4 7.6 4.5 22.7 13.7 27.7 17.2 2.4 4 4 8.2 4.7 12.9 0.2 1.8 1.1 10.6-1.6 17.1-3.7 8.4-10.3 13.5-19.8 15.1-2.4 0.5-3.4 1.5-3.4 3.9v19.5c0 2.6 1.3 3.9 4 3.9h31.7 31.7c2.7 0 4-1.3 4-4v-19.5c0-2.4-1-3.5-3.4-4-9.7-1.6-16.1-6.8-19.8-15.3-2.6-6.3-1.9-14.7-1.6-16.8 0.6-4.4 1.9-8.5 4.4-12.2 0.2-0.3 0.3-0.6 0.5-0.8 4.2-3.1 15-9.7 22.9-14.3 8.1-4 15.5-9 22.4-14.8s13.2-12.2 18-19.8c2.1-3.4 3.9-6.9 4.7-10.5 0-0.2 0.2-0.3 0.2-0.5v-0.2c0.3-1.1 0.5-2.4 0.5-3.5v-0.5-0.8c-0.2-1.3-0.2-2.8-0.5-4.4zm-141 30.3c-5.2-4.5-9.8-9.3-13.5-15.1-2.4-3.9-4.4-7.9-3.7-12.7 0.2-1.9 1-3.4 2.1-4.4 1-0.6 5.8-3.2 23-2.6 0.6 4.5 1.5 9 2.4 13.5 2.1 9.8 5.3 19.3 10.2 28 1.8 3.1 3.5 6 5.5 8.9-10.4-2.8-24.2-14.1-26-15.6zm78.7 99.8c0 1.1-0.6 1.8-1.8 1.9h-1.1-38-1.1c-1-0.2-1.6-0.6-1.6-1.6v-3.9c0-1 0.5-1.6 1.5-1.6h1 19.3 19.3c1.9 0 2.4 0.5 2.4 2.4 0.1 0.8 0.1 1.8 0.1 2.8zm52.5-125.2v0.5 0.8c-0.2 1.6-0.6 3.1-1.3 4.5-0.3 0.6-0.5 1.1-0.8 1.8-0.5 1-1.1 1.9-1.8 2.9-3.7 5.8-8.4 10.6-13.5 15.1-1.8 1.5-15.5 12.7-25.6 15.5 4.7-7.1 8.4-14.7 11.3-22.6 3.2-9 5.3-18.4 6.6-27.9 17.1-0.6 21.9 1.9 22.9 2.6 1.3 1 1.9 2.6 2.1 4.4v0.2 1c0.1 0.4 0.1 0.7 0.1 1.2z"/>
	
	
		<path class="st0" d="m63.7 60.4c-1.7-7.5-3-15-4.1-22.7-28.9-1.1-36.9 3.2-38.4 4.3-2.1 1.7-3.2 4.3-3.6 7.3-0.9 8.1 2.2 14.8 6.4 21.4 6.1 9.7 14 17.8 22.6 25.3 3 2.4 26.1 21.4 43.1 26.1-3.2-4.9-6.2-9.9-9-15-8.2-14.5-13.5-30.2-17-46.7z"/>
		<path class="st0" d="m266 49.5c-0.4-3.2-1.5-5.6-3.6-7.3-1.7-1.1-9.6-5.3-38.2-4.3-2.2 15.8-5.8 31.3-11.1 46.5-4.7 13.5-11.1 26.1-18.9 37.9 17.1-4.9 39.9-23.6 42.9-26.1 8.6-7.5 16.5-15.6 22.7-25.3 0.9-1.7 2.1-3.4 2.8-4.9 0.4-0.9 0.9-1.9 1.3-2.8 0.9-2.4 1.7-4.9 2.1-7.5 0-0.4 0-0.8 0.2-1.3v-0.9-2.1-1.7c-0.2 0-0.2-0.2-0.2-0.2z"/>
		<path class="st1" d="m174.1 254.3h-32.2-32.3-1.5c-1.7 0.2-2.6 1.1-2.6 2.8v6.4c0 1.7 0.9 2.6 2.6 2.8h1.7 63.6 1.9c2.1-0.2 3-1.1 3-3.2v-4.7c-0.1-3.4-0.8-4.1-4.2-4.1z"/>
		
		<radialGradient id="a" cx="141.42" cy="-7.8178" r="314.37" gradientTransform="matrix(1,0,0,-1,0,286)" gradientUnits="userSpaceOnUse">
			<stop style="stop-color:#c98b07" offset="0"/>
			<stop style="stop-color:#dfff8f" offset="1"/>
		</radialGradient>
		<path class="st3" d="m282.7 45.6c-1.1-6.4-3.6-11.8-8.3-15.8l-0.2-0.2c-0.4-0.4-0.9-0.8-1.3-1.1-0.8-0.6-1.7-1.3-2.6-1.7-3.6-2.1-7.3-3.4-11.1-4.3-11.3-3.2-24.9-4.5-33-5.1 0.2-3.4 0.4-6.9 0.6-10.3 0.2-4.9-2.1-7.1-6.9-7.1h-77.8-78.4c-4.3 0-6.7 2.2-6.6 6.6 0.2 3.6 0.4 7.3 0.6 10.9-8.1 0.6-21.9 1.9-33 5.1-3.8 0.9-7.5 2.4-11.1 4.3-6 3.4-9.9 8.6-11.6 15.4-1.9 7.5-1.9 15.2 0.6 22.7 3.4 10.5 9.4 19.5 16.5 27.8 12.4 14.6 27 26.4 43.1 36.6 0 0 0.2 0 0.2 0.2 2.2 1.5 4.7 2.8 6.9 4.1 12.6 7.5 38.1 22.9 46.5 28.9 3.9 6.6 6.8 13.9 7.9 21.4 0.4 3 1.9 17.8-2.8 28.7-6.2 14.1-17.3 22.7-33.2 25.3-3.9 0.8-5.8 2.4-5.8 6.6v32.6c0 4.5 2.2 6.6 6.8 6.6h53.1 53.2c4.7 0 6.8-2.1 6.8-6.6v-32.6c0-4.1-1.7-6-5.6-6.8-16.1-2.6-27.2-11.3-33.2-25.5-4.5-10.5-3.2-24.6-2.8-28.1 0.9-7.3 3.4-14.3 7.3-20.4 0.4-0.6 0.6-0.9 0.9-1.5 7.1-5.1 25.1-16.1 38.2-24 13.5-6.8 26.1-15 37.7-24.7 11.6-9.8 22.1-20.4 30.2-33.4 3.6-5.6 6.4-11.4 7.9-17.6 0-0.2 0.2-0.6 0.2-0.8v-0.4c0.4-2.1 0.8-3.9 0.9-6v-0.8-1.5c-0.3-2.7-0.4-5.1-0.8-7.5zm-236.1 50.6c-8.6-7.5-16.5-15.6-22.7-25.3-4.1-6.6-7.1-13.3-6.4-21.4 0.4-3.2 1.5-5.6 3.6-7.3 1.7-1.1 9.6-5.3 38.4-4.3 1.1 7.5 2.4 15.2 4.1 22.7 3.6 16.3 8.8 32.3 16.9 46.9 2.8 5.1 5.8 10.1 9 15-16.8-4.9-40.1-23.9-42.9-26.3zm131.6 167.1c0 2.1-0.9 3-3 3.2h-1.9-63.6-1.7c-1.7-0.2-2.6-1.1-2.6-2.8v-6.4c0-1.7 0.9-2.6 2.6-2.8h1.5 32.3 32.3c3.4 0 4.1 0.7 4.1 4.1v4.7zm-18-160.7h-37.1v-10.9h11.3v-39.6c-3.4 3.4-7.1 6.2-11.3 8.4v-13.1c6-3.2 10.9-7.3 14.8-12.4h11.3v56.6h11.1zm106-49.2v0.9c0 0.4 0 0.8-0.2 1.3-0.4 2.6-1.1 5.1-2.1 7.5-0.4 0.9-0.9 1.9-1.3 2.8-0.9 1.7-1.9 3.4-2.8 4.9-6.2 9.7-14.1 17.8-22.7 25.3-3 2.4-25.9 21.2-42.9 26.1 7.9-11.8 14.1-24.4 18.9-37.9 5.4-15.2 9-30.8 11.1-46.5 28.7-1.1 36.8 3.2 38.3 4.3 2.1 1.7 3.2 4.1 3.6 7.3v0.4 1.7c0.1 0.6 0.1 1.4 0.1 1.9z" style="fill:url(#a)"/>
		<path class="st1" d="m149.2 35.1h-11.3c-3.9 5.1-8.8 9.2-14.8 12.4v13.1c4.1-2.1 7.9-4.9 11.3-8.4v39.6h-11.3v10.9h37.1v-11h-11.1v-56.6z"/>
	
</g>
</svg>
