<svg version="1.1" viewBox="0 0 800 800" xml:space="preserve" xmlns="http://www.w3.org/2000/svg">
<style type="text/css">
	.st0{fill:url(#c);}
	.st1{fill:#d5d6d5;}
	.st2{fill:#060d18;}
	.st3{fill:url(#b);}
	.st4{fill:url(#a);}
</style>
<g transform="matrix(3.554 0 0 3.554 -104.49 -102)">
<radialGradient id="c" cx="119.35" cy="109.95" r="52.589" gradientUnits="userSpaceOnUse">
	<stop style="stop-color:#c98b07" offset="0"/>
	<stop style="stop-color:#dfff8f" offset="1"/>
</radialGradient>
<circle class="st0" cx="107.3" cy="82" r="52.8" style="fill:url(#c)"/>
	<path class="st1" d="m152.1 90.7c0 0.5 0.1 1.9 0.5 2.6 0.8 1.4 2.1 0.2 2.7-2.3 0.6-2.6-0.1-6.2-1.8-5.1-1.1 1.1-1.4 3.6-1.4 4.8m-2-10.7c0 0.2 0.2 1.1 0.6 1.6 1 1.6 2.3 0.4 2.6-1.1 0.4-2.1-0.7-5.3-2.3-4.2-1.3 1.1-1 3.1-0.9 3.7m-4.2 2.6c-1.4-6.2 2.9-10.3 4.7-11.4 3.5-2.1 6.6 3.8 5.1 9.8 0.1 0 0.3-0.1 0.5-0.1 2.4 0.1 3.8 10.7-2.2 16.7-0.4 0.4-1.5 1.4-2.7 1.8-3.5 1.1-5.1-6.1-1.8-12.3-0.9-0.2-2.8-0.8-3.6-4.5m-9.3 10.5c0.7 6.2 2.5 9.9 3.8 11.9 6 9 15.5 2.7 18.7-12.4 3.8-17.6-3.2-37.3-13.9-30.4-7.7 6.4-9.7 21.9-8.6 30.9"/>
	<path class="st2" d="m152.1 90.7c0-2.4 0.9-4.9 2-5 1.8-0.2 2.2 5.5 0.1 7.9-1.1 0.9-2-0.3-2.1-2.9m-2-10.7c-0.5-2.4 0.6-4 1.5-4 1.4 0 2.7 4.1 0.9 6-1.1 1-2-0.2-2.4-2m-4.2 2.6c0.8 3.7 2.7 4.3 3.6 4.5-2.2 4.2-1.9 7.6-1.5 9.3 1.4 6.5 6.5 1.3 8.1-1.2 2.8-4.5 3.2-14.9-0.3-14.2 0.1-0.5 0.2-0.9 0.3-1.6 0.4-3.6-1.5-11.4-6.3-7.5-1.3 1.1-5.2 4.7-3.9 10.7"/>
	<path class="st1" d="m80.2 65.8c-2-0.3-4.5 1.6-5.2 5-0.8 4.3 2.1 7.2 5.1 5.1 3.8-2.6 3.8-9.4 0.1-10.1m4.7-12.6c-2.6-0.4-4.7 2.3-5 4.3-0.4 2.8 2.7 3.6 4.9 2 2.1-1.5 3.4-5.7 0.1-6.3m-8.2 29.7c-1.3-0.2-2.6-0.5-3.6-0.9-8.5-3.4-6.4-16.6 1.3-19.9-0.2-0.3-0.5-0.7-0.7-1.4-2.4-6.6 7.4-15.9 17.4-11.2 5.7 2.7 6.2 11.4-2.8 14.6 0.5 0.3 1.6 1.1 2.5 2.2 2.4 3.4 2.7 19-14.1 16.6m17.7-44c-11.3-1.7-30.9 9.1-34.7 29.4-4.5 23.3 15.5 37.2 35.7 24.7 24.3-14.9 20.1-49.7-1-54.1"/>
	<path class="st2" d="m77.6 76.6c-1.8-0.3-3.1-2.6-2.7-5.2 0.6-5 5.1-7.1 7.1-4.5 2.6 3.4-0.4 10.2-4.4 9.7m4.2-16.3c-2-0.3-1.9-2.2-1.9-2.6 0 0 0.3-2.7 2.7-4.1 1.5-0.8 3.1-0.5 3.8 0.3 1.6 2.1-0.7 6.9-4.6 6.4m6-11.8c-10.5-1.6-16.8 8-13.4 13.5-1.3 0.5-2.9 1.5-4.4 3.6-6.2 9.1-0.3 19.8 13.3 17.3 8.1-1.5 12.7-13.8 5.1-18.8 0.6-0.2 2.1-0.8 3.3-1.6 4.8-3.5 6-12.3-3.9-14"/>
	<path class="st1" d="m98.6 125.6c-1.1-0.1-1.7 0.4-1.7 1-0.1 1.5 2.8 3.5 4.3 2.4 1.1-0.9-0.3-3.2-2.6-3.4m-1.4-5.8c-1.2-0.1-1.8 0.4-1.9 1-0.3 1.9 2.6 3.2 4 2.2 1.1-0.7 0.5-2.9-2.1-3.2m3.6 11.1c-1-0.1-3-0.4-4.7-1.2-2.8-1.4-5.7-4.7-2.3-5.8-0.7-0.4-2.5-1.4-3.2-3.1-2.1-4.8 6.6-4.6 10.6-3s5.5 5.4 1.6 6.9c0.9 0.3 2 0.7 2.7 1.6 0 0.1 3.7 5.4-4.7 4.6m-4.8-21.6c-7.5-0.7-13.1 2-14 6.6-1.8 9.7 19 23.7 29.5 16.1 8.5-6.1 3.3-20.2-15.5-22.7"/>
	<path class="st2" d="m99.9 129.2c-1.5-0.1-3.2-1.6-3-2.7 0.1-1.4 2.7-1.3 4 0.2 1 1.1 1 2.7-1 2.5m-2-5.9c-1.6-0.2-2.7-1.4-2.6-2.4 0.1-1.4 2.7-1.5 3.9-0.1 0.8 0.7 1.1 2.7-1.3 2.5m-0.9-6.3c-1.9-0.2-3.4-0.1-4.5 0.1-3.3 0.8-3.3 4.3 1.2 6.9-0.3 0.1-1.2 0.3-1.4 1-1.4 3.3 8.1 7.6 12.6 5.7 2.1-0.9 2.4-4.3-2.2-5.9 0.2-0.1 0.8-0.3 1.3-0.7 2.1-1.6 1.1-6.3-7-7.1"/>
<radialGradient id="b" cx="156.32" cy="178.86" r="85.587" gradientUnits="userSpaceOnUse">
	<stop style="stop-color:#c98b07" offset="0"/>
	<stop style="stop-color:#dfff8f" offset="1"/>
</radialGradient>
<circle class="st3" cx="192.2" cy="141.5" r="62.2" style="fill:url(#b)"/>
	<path class="st1" d="m192.8 84.2c-4.2 0-3.7 2.6-2.8 3.5 1.6 1.6 6.8 1.5 6.8-1.1 0-1.8-2.5-2.3-4-2.4m-1.7 7.5c-8 0-10.5-4.3-7.8-6.9 4-3.8 22-4.3 21.9 6.2-0.1 9.5-16.8 9.5-21.1 5-0.7-0.8-1.1-1.5-1.3-1.8 2.3-0.4 5.4-0.9 7.7-1.1 1 3.1 5.2 2.3 6.1 0.4 0.5-1 0.7-2.7 0.7-3.3-1.9 1.1-3.6 1.5-6.2 1.5m1.7-11.9c-20.8 0-29.3 11.1-21.5 19.9 11.9 13.3 47.2 10.1 47.8-4.3 0.4-8-11.9-15.2-26.3-15.6"/>
	<path class="st2" d="m193.2 88.8c-4-0.1-4.3-2.8-3.2-3.8 1.6-1.4 7-0.9 6.9 1.8-0.1 1.6-2.1 2.1-3.7 2m-0.7-6.3c-9.9-0.1-11.6 4.3-9.3 6.7 2.2 2.3 9.2 3.7 14.2 1-0.8 8.1-6.2 4.1-6.2 4-0.3-0.4-0.5-0.9-0.6-1.1-2.3 0.3-5.4 0.7-7.7 1.1 3.3 6.5 19.7 5.9 22-0.8 0.2-1.1 3-10.7-12.4-10.9"/>
	<path class="st1" d="m188.4 165.3c-5.4 0-5.5 7.4-2.9 9.9 2.5 2.4 8.1 1.7 7.9-4.3-0.1-3.7-2.7-5.5-5-5.6m-2.2 16.2c-11.1-0.6-14.9-13.2-8.2-19.4 5.8-5.4 26.5-5.7 25.6 13.5-0.9 18.8-19.6 16.7-24.8 11-1-1.1-1.5-2.1-1.8-2.6 5.2-0.2 5.5-0.2 8.6-0.4 1.3 4.2 5.7 3.2 6.9 0.8 0.7-1.4 1.1-4.3 1.2-5.5-2.4 1.9-4.5 2.7-7.5 2.6m3-37.8c-30.5 0.9-38.9 28.4-21.2 45 23.3 21.8 55.2 1.6 53.2-19.9-1.2-13.6-15.6-24.9-32-25.1"/>
	<path class="st2" d="m188.7 176.5c-5.5-0.2-5.8-7.9-3.2-10.1 2.6-2.3 8.5-0.8 8 5.5-0.4 3.5-2.8 4.7-4.8 4.6m-0.6-17.5c-15.4-0.2-15.4 13.6-9.9 18.9 3.1 3.1 9.8 5.8 15.6 0.8-1.5 12.1-7.3 6.4-7.3 6.3-0.4-0.6-0.6-1.3-0.7-1.6-5.4 0.3-5.6 0.3-8.6 0.4 4.8 9.1 21.7 9.2 25.5-2.3-0.1-0.1 6.6-22-14.6-22.5"/>
	<path class="st1" d="m254.4 145.2c0-0.7 0.1-1.6 0.1-2.2-0.2 2.8-0.5 6.4-0.9 9.2l0.3-1.8c0.1-1.6 0.4-3.7 0.5-5.2"/>
	<path class="st1" d="m250.3 141.6c-0.2-3.2-1.2-5-2.2-4.2-0.9 0.9-0.9 3.1-0.8 4.7 0.1 1.1 0.4 4.6 1.6 4.6 0.9-0.1 1.7-2.1 1.4-5.1m2.6 3.8c-0.2 13.2-5.6 17.2-7.4 15.5-0.8-0.8-1.1-2.4-1.2-4.1 1.1-0.8 2.6-1.9 3.7-2.7 0 1.1 0 2.9 1 2 1.5-1.3 1.7-6.7 1.8-8.5-0.8 2.8-1.5 3.7-2.4 4.3-4.2 2-5.7-10.3-3.7-15.8 0.6-1.6 4.2-7 6.6-1.4 1.5 3.4 1.6 8.6 1.6 10.7m1.6-2.9c-0.1-17.7-6-24.1-11.5-19.9-11.9 12.5-8.8 49.9 0.3 48.6 0.1 0 9.7-2.1 11.2-28.3v-0.4"/>
	<path class="st2" d="m250.3 141.6c0.1 1.9-0.1 4.2-1.1 5-1.8 0.9-2.3-6-1.7-8.2 0.4-1.3 1.3-1.8 2-0.3 0.6 1 0.8 2.6 0.8 3.5m2.6 3.8c0-0.2 0.1-16.6-6-12.5-5.4 4.2-2.7 18.8 0.3 19.2 1.5 0.2 2.7-1.3 3.5-4.5-0.4 9.8-2.4 8.6-2.4 8.6-0.3-0.3-0.3-1.1-0.3-2.1-1.1 0.8-2.6 2-3.7 2.7 0.8 8.3 5.1 2.7 5.3 2.5 1.9-2.7 3.2-8.1 3.3-13.9"/>
	<path class="st1" d="m130.5 149.2c0 0.2 0.1 0.5 0.1 0.7-0.2-2.6-0.5-6-0.6-8.5 0.3-6.7 0.3-6.8 0.9-10.5 0.5-2.4 1.2-5.5 1.9-7.9l-0.1 0.3c-3.2 11.5-2.8 21.2-2.2 25.9"/>
	<path class="st1" d="m134.6 132.8c0.7-2.9 0.8-5 0.2-5.5-1.3-0.5-2.6 6.4-2 7.9 0.3 0.7 0.9 0.4 1.3-0.9 0.2-0.4 0.3-0.9 0.5-1.5m1.7 7c-0.6 3.8-1.9 11.8-4.6 8-0.9-1.3-1.3-4-1.3-8.1 0.3 0.3 0.8 0.7 1.2 1-0.1 4.2 0.9 3.3 0.9 3.3 0.3-0.3 0.3-0.3 1.2-5.9-0.8 1.3-1.3 1.5-1.8 0.9-2.1-3.1 1-16.9 3.6-16.2 3.4 1 1.9 10.3 0.8 17m6.5 4c2-11.3 1.4-26.3-2.7-29.6-1.6-0.7-5.8-0.5-9.2 16.7-0.8 6.5-0.9 6.7-0.9 10.5 0.1 2.6 0.3 6 0.6 8.5l0.2 1.1c2.2 11.7 6.2 7.6 7.4 6.1 2.6-3.5 4.1-10.5 4.6-13.3"/>
	<path class="st2" d="m134.6 132.8c-0.5 2.2-1.1 3.1-1.6 2.6-1.2-1.6 0.8-8.4 1.8-8.2 0.4 0.2 0.8 1.8-0.2 5.6m1.7 7c1.5-9 2.2-14.2-0.3-16.6-2.6-2.1-5.4 8.8-4.8 14 0 0 0.5 3.6 2 1.6 0.1-0.2 0.3-0.4 0.4-0.6-0.3 1.6-0.4 3.3-0.8 4.9-0.1 0.4-0.4 1.4-0.8 1-0.5-0.5-0.5-2.6-0.5-3.3-0.4-0.3-0.9-0.7-1.2-1-0.2 10.7 3.2 8.8 3.2 8.8 1.5-1.1 2.2-5.2 2.8-8.8"/>
<radialGradient id="a" cx="74.664" cy="219.77" r="77.142" gradientUnits="userSpaceOnUse">
	<stop style="stop-color:#c98b07" offset="0"/>
	<stop style="stop-color:#dfff8f" offset="1"/>
</radialGradient>
<circle class="st4" cx="101.2" cy="181.5" r="71.8" style="fill:url(#a)"/>
	<path class="st1" d="m40.3 193.3c0-1.6-0.4-5-2.1-6.5-2.3-1.5-3.2 3.3-2.4 6.9 0.8 3.5 2.6 5 3.7 3.1 0.7-0.9 0.8-2.8 0.8-3.5m2.8-14.5c0.2-0.8 0.6-3.5-1.2-5.1-2.2-1.5-3.8 2.9-3.2 5.7 0.4 2.2 2.2 3.7 3.5 1.6 0.6-0.8 0.8-1.9 0.9-2.2m5.7 3.5c-1.1 5.1-3.7 5.8-4.9 6.1 4.5 8.5 2.2 18.2-2.5 16.7-1.7-0.5-3.1-1.9-3.7-2.4-8.1-8.2-6.3-22.6-3-22.7 0.2 0 0.5 0 0.6 0.1-1.9-8.2 2.2-16.2 7-13.3 2.5 1.5 8.3 7.1 6.5 15.5m12.7 14.2c1.4-12.1-1.3-33.2-11.6-42-14.6-9.4-24.1 17.4-19 41.3 4.4 20.6 17.3 29.1 25.4 16.9 1.8-2.7 4.2-7.7 5.2-16.2"/>
	<path class="st2" d="m40.3 193.3c-0.1 3.5-1.3 5.2-2.8 3.9-2.9-3.2-2.3-10.9 0.1-10.7 1.5 0.2 2.8 3.5 2.7 6.8m2.8-14.5c-0.5 2.4-1.8 4.1-3.3 2.8-2.5-2.6-0.7-8.2 1.2-8.2 1.3 0 2.7 2.1 2.1 5.4m5.7 3.5c1.8-8.1-3.5-13-5.2-14.6-6.6-5.3-9.1 5.4-8.6 10.2 0.1 0.9 0.3 1.6 0.4 2.2-4.6-1-4.1 13.3-0.4 19.3 2.2 3.4 9 10.5 11 1.6 0.5-2.3 0.9-7-2.1-12.6 1.1-0.3 3.8-1.1 4.9-6.1"/>
	<path class="st1" d="m138.1 159.5c-5.1 0.9-5.1 10.2 0.1 13.8 4.1 2.9 8.1-1.1 7-7-1-4.7-4.4-7.2-7.1-6.8m-6.4-17.1c-4.5 0.8-2.7 6.5 0.1 8.6 3 2.2 7.2 1.1 6.6-2.7-0.3-2.8-3.2-6.4-6.7-5.9m11.1 40.3c-22.8 3.2-22.5-17.9-19.1-22.4 1.2-1.6 2.7-2.6 3.4-3.1-12.3-4.4-11.6-16.2-3.8-19.9 13.7-6.5 27 6.2 23.7 15.2-0.3 0.9-0.7 1.5-0.9 1.9 10.4 4.5 13.3 22.5 1.8 27.1-1.6 0.5-3.3 0.9-5.1 1.2m-24-59.8c-28.6 6-34.4 53.3-1.4 73.6 27.5 16.9 54.7-1.9 48.6-33.7-5.3-27.5-31.9-42.2-47.2-39.9"/>
	<path class="st2" d="m141.6 174.2c-5.3 0.6-9.5-8.6-5.9-13.2 2.8-3.6 8.8-0.6 9.7 6.1 0.3 3.5-1.3 6.7-3.8 7.1m-5.7-22.2c-5.3 0.7-8.5-5.9-6.3-8.5 0.9-1.1 3.1-1.6 5.2-0.5 3.3 1.9 3.7 5.5 3.7 5.5 0 0.5 0.2 3.1-2.6 3.5m-8.1-16c-13.5 2.3-11.8 14.3-5.2 19 1.7 1.2 3.7 1.9 4.5 2.2-10.4 6.9-4.2 23.6 6.9 25.6 18.5 3.4 26.5-11.1 18-23.5-2-3-4.3-4.2-6-4.9 4.6-7.5-3.9-20.6-18.2-18.4"/>
	<path class="st1" d="m113 240.7c-3.1 0.3-5 3.4-3.5 4.6 2 1.5 6-1.3 5.8-3.3 0-0.7-0.8-1.4-2.3-1.3m1.9-7.9c-3.5 0.4-4.3 3.4-2.9 4.4 1.8 1.3 5.9-0.5 5.4-3.1 0-0.7-0.8-1.4-2.5-1.3m-4.8 15.2c-11.5 1-6.5-6.1-6.4-6.2 1-1.1 2.5-1.8 3.7-2.2-5.2-2-3.2-7.2 2.2-9.4s17.3-2.5 14.4 4.1c-1 2.3-3.4 3.6-4.4 4.2 4.6 1.4 0.7 6-3.1 7.8-2.2 1.2-4.9 1.6-6.4 1.7m6.5-29.4c-25.6 3.3-32.6 22.6-21.1 30.9 14.3 10.2 42.6-8.8 40.1-22-1.2-6.2-8.8-9.8-19-8.9"/>
	<path class="st2" d="m111.2 245.7c-2.6 0.2-2.7-1.9-1.4-3.4 1.8-2 5.3-2.1 5.5-0.3 0.2 1.5-2 3.5-4.1 3.7m2.8-8.1c-3.3 0.3-2.9-2.4-1.9-3.5 1.7-1.8 5.1-1.7 5.3 0.2 0.2 1.4-1.1 3.1-3.4 3.3m1.2-8.6c-11 1.1-12.3 7.5-9.4 9.7 0.6 0.5 1.4 0.8 1.7 0.9-6.2 2.1-5.8 6.7-2.9 8 6 2.7 19-3.1 17.1-7.7-0.4-0.9-1.5-1.3-2-1.4 6.1-3.4 6.1-8.2 1.6-9.3-1.5-0.4-3.5-0.4-6.1-0.2"/>
</g>
</svg>
