<svg id="Layer_1" data-name="Layer 1" xmlns="http://www.w3.org/2000/svg" xmlns:xlink="http://www.w3.org/1999/xlink" viewBox="0 0 800 800"><defs><style>.cls-1{fill:none;}.cls-2{fill:#d5d6d5;}.cls-3{clip-path:url(#clip-path);}.cls-4{fill:url(#linear-gradient);}.cls-5{clip-path:url(#clip-path-2);}.cls-6{fill:url(#linear-gradient-2);}.cls-7{clip-path:url(#clip-path-3);}.cls-8{fill:#060d18;}.cls-9{clip-path:url(#clip-path-4);}.cls-10{fill:url(#linear-gradient-3);}.cls-11{clip-path:url(#clip-path-6);}.cls-12{fill:url(#linear-gradient-4);}.cls-13{clip-path:url(#clip-path-7);}.cls-14{fill:url(#linear-gradient-5);}.cls-15{clip-path:url(#clip-path-8);}.cls-16{fill:url(#linear-gradient-6);}</style><clipPath id="clip-path"><path class="cls-1" d="M519.17,347.46l-2.39,145.07,33.32,33.09,66.6-67.08a74.09,74.09,0,0,0-97.53-111.08"/></clipPath><linearGradient id="linear-gradient" x1="4380.38" y1="5222.28" x2="4381.25" y2="5222.28" gradientTransform="matrix(0, 453.74, 453.74, 0, -2368998.46, -1987218)" gradientUnits="userSpaceOnUse"><stop offset="0" stop-color="#dfff8f"/><stop offset="1" stop-color="#c98b07"/></linearGradient><clipPath id="clip-path-2"><rect class="cls-1" x="56" width="501.22" height="706.06"/></clipPath><linearGradient id="linear-gradient-2" x1="4384.74" y1="5226.68" x2="4385.62" y2="5226.68" gradientTransform="matrix(0, 821.72, 821.72, 0, -4294545.66, -3602986.7)" xlink:href="#linear-gradient"/><clipPath id="clip-path-3"><rect class="cls-1" x="56" width="689.1" height="800"/></clipPath><clipPath id="clip-path-4"><path class="cls-1" d="M605.26,708.71A31.64,31.64,0,1,0,650,753.46l.93-.93.93.93a31.64,31.64,0,0,0,44.77-44.72L651,662.87Z"/></clipPath><linearGradient id="linear-gradient-3" x1="4380.38" y1="5222.25" x2="4381.25" y2="5222.25" gradientTransform="matrix(0, 453.74, 453.74, 0, -2368914.25, -1987218)" xlink:href="#linear-gradient"/><clipPath id="clip-path-6"><path class="cls-1" d="M-456.1,993.75c-194.06,0-351.56,157.5-351.56,351.56a160.11,160.11,0,0,0,16.4,70.78c26.72,56.72,84.84,93.28,147.66,93.28V1462.5A23.21,23.21,0,0,1-667,1439.06a23.21,23.21,0,0,1,23.44-23.44h243.75l39.12-8.07,70.57,6.19c74.57-8.28,149.64-58.88,178-138.75l-58.12-23.44,68.91-23.44a190.64,190.64,0,0,0,1.41-23.44c0-116.25-99.22-210.94-215.47-210.94Z"/></clipPath><linearGradient id="linear-gradient-4" x1="4454.42" y1="5097.3" x2="4455.61" y2="5097.3" gradientTransform="matrix(-543.68, 0, 0, 543.68, 2421591.55, -2770035.49)" gradientUnits="userSpaceOnUse"><stop offset="0" stop-color="#f69136"/><stop offset="1" stop-color="#f16231"/></linearGradient><clipPath id="clip-path-7"><path class="cls-1" d="M443.9,900a456.37,456.37,0,0,0-105,12.19l14.15,107.9,114.29,20.54H641.25L500.62,900Z"/></clipPath><linearGradient id="linear-gradient-5" x1="4289.89" y1="5221.89" x2="4290.76" y2="5221.89" gradientTransform="matrix(0, 153.19, 153.19, 0, -799476.06, -656343.24)" xlink:href="#linear-gradient"/><clipPath id="clip-path-8"><path class="cls-1" d="M443.9,993.75c-194.06,0-351.56,157.5-351.56,351.56a160.1,160.1,0,0,0,16.4,70.78c26.72,56.72,84.84,93.28,147.66,93.28V1462.5a23.44,23.44,0,0,1,0-46.87H500.16l39.12-8.07,70.57,6.19c74.57-8.28,149.63-58.88,178-138.75l-58.12-23.44,68.9-23.44a190.59,190.59,0,0,0,1.41-23.44c0-116.25-99.22-210.94-215.47-210.94Z"/></clipPath><linearGradient id="linear-gradient-6" x1="4326.35" y1="5226.91" x2="4327.22" y2="5226.91" gradientTransform="matrix(-748.98, 0, 0, 748.98, 3241063.4, -3913584.52)" xlink:href="#linear-gradient"/></defs><title>Poker</title><polygon class="cls-2" points="250.57 93.94 243.88 682.58 243.88 800 745.1 800 745.1 93.94 250.57 93.94"/><g class="cls-3"><rect class="cls-4" x="516.78" y="332.26" width="121.56" height="193.36"/></g><g class="cls-5"><rect class="cls-6" x="56" width="501.22" height="706.06"/></g><g class="cls-7"><path class="cls-8" d="M299.77,215.12,406.7,322.47A74.05,74.05,0,0,1,301.92,427.14L299.73,425l-2.18,2.18A74.06,74.06,0,0,1,192.82,322.41Z"/><polygon class="cls-8" points="299.79 441.26 262.05 490.94 337.52 490.94 299.79 441.26"/><path class="cls-8" d="M149,47.73,194.68,93.6a31.64,31.64,0,0,1-44.77,44.72l-.93-.93-.93.93A31.64,31.64,0,0,1,103.3,93.57Z"/><polygon class="cls-8" points="149 144.35 132.88 165.58 165.12 165.58 149 144.35"/><path class="cls-8" d="M461,662.51l-45.69-45.86A31.64,31.64,0,0,1,460,571.92l.93.93.93-.93a31.64,31.64,0,1,1,44.75,44.75Z"/></g><g class="cls-9"><rect class="cls-10" x="592.92" y="662.87" width="112.97" height="102.92"/></g><g class="cls-7"><polygon class="cls-8" points="460.95 565.89 477.07 544.66 444.83 544.66 460.95 565.89"/></g><g class="cls-11"><rect class="cls-12" x="-891.28" y="840.43" width="874.91" height="822.26" transform="translate(-773.44 -40.81) rotate(-33.82)"/></g><g class="cls-13"><rect class="cls-14" x="324.74" y="830.03" width="330.67" height="280.57" transform="translate(-443.12 412.79) rotate(-32.35)"/></g><g class="cls-15"><rect class="cls-16" x="8.72" y="840.43" width="874.91" height="822.26" transform="translate(-621.13 460.15) rotate(-33.82)"/></g></svg>