<?xml version="1.0" encoding="UTF-8" standalone="no"?>
<svg
   xmlns:dc="http://purl.org/dc/elements/1.1/"
   xmlns:cc="http://creativecommons.org/ns#"
   xmlns:rdf="http://www.w3.org/1999/02/22-rdf-syntax-ns#"
   xmlns:svg="http://www.w3.org/2000/svg"
   xmlns="http://www.w3.org/2000/svg"
   version="1.1"
   id="Layer_1"
   x="0px"
   y="0px"
   viewBox="0 0 800 800"
   xml:space="preserve"
   width="800"
   height="800">
   <style
      type="text/css"
      id="style850">
      .st0{fill:url(#SVGID_1_);}
      .st1{fill:#d5d6d5;}
   </style>
   <g id="g873" transform="matrix(3.5698289,0,0,3.5698289,-106.1237,-105.66693)">
      <radialGradient id="SVGID_1_" cx="144.4176" cy="258.3284" r="195.56171" gradientUnits="userSpaceOnUse">
         <stop offset="0" style="stop-color:#c98b07" id="stop852" />
         <stop offset="1" style="stop-color:#dfff8f" id="stop858" />
      </radialGradient>
      <path
      class="st0"
      d="m 248.3,153.6 c -1.2,-1.7 -2.5,-3.3 -3.5,-5 -3,-5.1 -3.1,-10.2 -0.1,-15.3 0.9,-1.6 2,-3 3.1,-4.5 6,-8.6 3.8,-17.9 -5.4,-22.9 -1.5,-0.8 -3.1,-1.6 -4.6,-2.6 -5.3,-3.4 -7.6,-8.3 -6.9,-14.5 0.3,-2.8 0.9,-5.6 1,-8.5 0.2,-7.1 -5.3,-13.5 -12.4,-14.3 -2,-0.2 -3.9,-0.4 -5.9,-0.4 -7.8,-0.3 -12.7,-4.1 -15,-11.6 -0.8,-2.6 -1.5,-5.4 -2.8,-7.8 -3.8,-6.6 -11.2,-8.7 -18.6,-5.8 -1.7,0.7 -3.3,1.5 -5,2.1 -6.3,2.4 -11.7,1 -16.4,-3.7 -0.5,-0.5 -0.9,-1 -1.3,-1.5 -3,-3.7 -6.5,-6.7 -11.3,-7.7 -1.3,0 -2.6,0 -3.9,0 -4.8,1 -8.4,3.8 -11.4,7.6 -2.7,3.5 -6.1,6.4 -10.7,6.5 -2.8,0.1 -5.7,-0.6 -8.5,-1.3 -2.8,-0.7 -5.5,-2.3 -8.3,-2.6 C 92.7,39 86.7,43.5 84.5,51 c -0.6,2 -1,4.1 -1.8,6.1 -2.1,5.5 -6.2,8.7 -12,9.4 -3.3,0.4 -6.8,0.3 -9.9,1.2 -7.5,2.2 -11.4,9.3 -9.9,17.4 0.3,1.7 0.7,3.4 0.9,5.2 0.8,6 -1.4,10.7 -6.2,14.2 -1.8,1.3 -3.8,2.2 -5.7,3.3 -8.3,5 -10.3,14.2 -4.6,22.1 0.9,1.3 1.9,2.6 2.8,3.9 3.9,5.6 3.9,11.7 0.1,17.4 -0.9,1.4 -2,2.7 -2.9,4.1 -5.4,8 -3.2,17.1 5.1,21.9 1.8,1.1 3.8,1.9 5.5,3.1 5.1,3.4 7.3,8.1 6.7,14.2 -0.3,2.8 -0.9,5.6 -1,8.4 -0.3,7.3 5.3,13.6 12.5,14.5 2,0.2 4.1,0.3 6.1,0.4 7.4,0.3 12.5,4.2 14.6,11.3 0.9,2.8 1.5,5.7 3,8.2 3.8,6.6 11.2,8.7 18.6,5.7 2,-0.8 3.9,-1.7 5.9,-2.4 5.5,-1.9 10.5,-0.7 14.8,3.3 2.1,1.9 3.8,4.2 5.9,6.1 5.4,5 13.9,4.9 19.3,-0.1 1.6,-1.5 3.1,-3.3 4.6,-5 5,-5.5 10.9,-6.8 17.8,-4.1 2.8,1.1 5.6,2.4 8.5,2.8 7.7,0.9 13.8,-3.6 16,-11.3 0.6,-2 1,-4.1 1.8,-6.1 2.1,-5.4 6.1,-8.5 11.9,-9.3 3.3,-0.4 6.8,-0.3 9.9,-1.2 7.6,-2.2 11.5,-9.4 9.9,-17.6 -0.3,-1.6 -0.7,-3.3 -0.9,-4.9 -0.8,-6.1 1.4,-10.9 6.4,-14.3 1.7,-1.2 3.7,-2.1 5.5,-3.2 8.3,-5 10.2,-14.1 4.6,-22.1 z"
      id="path861"
      style="fill:url(#SVGID_1_)" />
      <g
      id="g871">
         <g
      id="g869">
            <path
      class="st1"
      d="m 133.3,119.2 c 0.1,14.6 -11.9,26.6 -26.5,26.7 C 92.1,146 80,133.8 80,119.3 c 0,-14.4 12,-26.5 26.4,-26.5 14.8,-0.2 26.8,11.7 26.9,26.4 z m -15.6,0.2 c 0,-6.1 -4.9,-11 -10.9,-11.1 -6,0 -11,4.9 -11,11 0,6.1 4.9,11 10.9,11.1 6,0 11,-5 11,-11 z"
      id="path863" />
            <path
      class="st1"
      d="m 203.5,164.1 c 0,14.5 -12,26.6 -26.5,26.7 -14.6,0 -26.9,-12.2 -26.8,-26.7 0.1,-14.6 12.1,-26.5 26.7,-26.5 14.6,0 26.6,11.9 26.6,26.5 z m -37.6,0.1 c 0,6 4.9,11 10.9,11 6.1,0 11.1,-5 11,-11.2 -0.1,-6 -5,-10.9 -11.1,-10.8 -6,0 -10.8,4.9 -10.8,11 z"
      id="path865" />
            <path
      class="st1"
      d="m 100,183.4 c 0.9,-1.6 1.6,-3.3 2.7,-4.7 19.6,-23.6 39.2,-47.2 58.8,-70.8 3.1,-3.7 6.1,-7.4 9.2,-11.1 3.1,-3.8 7,-4.5 10.1,-2 3.1,2.5 3.1,6.5 0,10.2 -22.8,27.4 -45.6,54.9 -68.3,82.3 -2.3,2.8 -5.1,3.7 -7.9,2.7 -2.7,-1.1 -4.2,-3.4 -4.6,-6.6 z"
      id="path867" />
         </g>
      </g>
   </g>
</svg>
