<svg id="Layer_2" data-name="Layer 2" xmlns="http://www.w3.org/2000/svg" xmlns:xlink="http://www.w3.org/1999/xlink" viewBox="0 0 1024 1024">
  <defs>
    <style>.cls-1{fill:#d5d6d5;}.cls-2{fill:url(#linear-gradient)}.cls-3{fill:#060d18;}</style>
    <linearGradient id="linear-gradient" x1="379.05" y1="1022.41" x2="379.05" y2="234.62" gradientUnits="userSpaceOnUse">
      <stop offset="0" stop-color="#dfff8f"/>
      <stop offset="1" stop-color="#c98b07"/>
    </linearGradient>
  </defs>
  <title>Referral</title>
  <g>
    <g>
      <g><path class="cls-1" d="M793.92,407c-14.25.71-27.09,1.27-38.88,1.7A215.73,215.73,0,0,0,865.38,220.43c0-119.21-96.71-215.84-216-215.84s-216,96.63-216,215.84A215.72,215.72,0,0,0,541,407.17c-12-.11-25.11-.16-39.42-.16-149.41,0-227.37,146-227.37,162.26s128.32,223.11,374.1,223.11,373-196.06,373-223.11S922.77,400.51,793.92,407Z"/></g>
      <g><path class="cls-2" d="M621.59,659c-4.21-2.13-13.53-23.37-13.53-23.37s-53.11-.1-82.84,1.39c-14.27.72-27.13,1.28-38.93,1.71a215.71,215.71,0,0,0,110.39-188.3c0-119.19-96.71-215.82-216-215.82s-216,96.63-216,215.82A215.72,215.72,0,0,0,272.34,637.2c-12.06-.11-25.14-.17-39.46-.17C83.46,637,5.5,783.07,5.5,799.3s128.32,223.11,374.1,223.11,373-196.07,373-223.11C752.59,779.56,700.08,698.7,621.59,659Z"/></g>
      <g><path class="cls-3" d="M675.23,474.82,485.92,639.71H602c0,210.62-185.24,291.1-207.64,291.1,108.91,0,356.24-57,356.24-291.1h116Z"/></g>
    </g>
  </g>
</svg>
