<svg id="Layer_1" data-name="Layer 1" xmlns="http://www.w3.org/2000/svg" xmlns:xlink="http://www.w3.org/1999/xlink" viewBox="0 0 800 792"><defs><style>.cls-1{fill:#d5d6d5;}.cls-2{fill:#060d18;}.cls-3{fill:url(#linear-gradient);}.cls-4{fill:url(#linear-gradient-2);}.cls-5{fill:url(#linear-gradient-3);}.cls-6{fill:url(#linear-gradient-4);}.cls-7{fill:url(#linear-gradient-5);}.cls-8{fill:url(#linear-gradient-6);}</style><linearGradient id="linear-gradient" x1="568.15" y1="429.32" x2="568.15" y2="672.46" gradientUnits="userSpaceOnUse"><stop offset="0" stop-color="#dfff8f"/><stop offset="1" stop-color="#c98b07"/></linearGradient><linearGradient id="linear-gradient-2" x1="293.51" y1="602.58" x2="293.51" y2="770.14" xlink:href="#linear-gradient"/><linearGradient id="linear-gradient-3" x1="400" y1="72.84" x2="400" y2="590.68" xlink:href="#linear-gradient"/><linearGradient id="linear-gradient-4" x1="168.87" y1="255.09" x2="168.87" y2="652.53" xlink:href="#linear-gradient"/><linearGradient id="linear-gradient-5" x1="399.29" y1="255.09" x2="399.29" y2="652.53" xlink:href="#linear-gradient"/><linearGradient id="linear-gradient-6" x1="634.84" y1="255.09" x2="634.84" y2="652.53" xlink:href="#linear-gradient"/></defs><title>slot icon</title><path class="cls-1" d="M69.17,408.63H730.83A14.17,14.17,0,0,1,745,422.8V737a55,55,0,0,1-55,55H110a55,55,0,0,1-55-55V422.8A14.17,14.17,0,0,1,69.17,408.63Z"/><path class="cls-1" d="M438.07,763.72a1.5,1.5,0,0,0,0-3,1.5,1.5,0,0,0,0,3Z" transform="translate(0 -11)"/><rect class="cls-2" x="537.86" y="654.68" width="60.57" height="137.32"/><circle class="cls-3" cx="568.15" cy="627.15" r="78.19"/><rect class="cls-4" x="148.95" y="621.61" width="289.12" height="65.26" rx="32.63" ry="32.63"/><path class="cls-5" d="M750.32,140.06H693.13C655.85,13.4,538.73,11,400,11S144.15,13.4,106.87,140.06H49.68A49.83,49.83,0,0,0,0,189.74V486.38a49.82,49.82,0,0,0,49.68,49.68H750.32A49.82,49.82,0,0,0,800,486.38V189.74A49.83,49.83,0,0,0,750.32,140.06Z" transform="translate(0 -11)"/><rect class="cls-2" x="66.57" y="202.06" width="196.2" height="250.98" rx="18.95" ry="18.95"/><rect class="cls-2" x="301.26" y="202.06" width="196.2" height="250.98" rx="18.95" ry="18.95"/><rect class="cls-2" x="536.8" y="202.06" width="196.2" height="250.98" rx="18.95" ry="18.95"/><path class="cls-6" d="M123.18,303.05a16.19,16.19,0,0,1-6.09,1.32c-1.82,0-2.73-.88-2.73-2.65a30.1,30.1,0,0,1,1.71-6.63l7-20.55a44.14,44.14,0,0,1,3.74-7.89,11.25,11.25,0,0,1,4.6-4.48Q134,261,141.61,260a118,118,0,0,1,15.13-1,153.6,153.6,0,0,1,21.87,2,149.62,149.62,0,0,0,21,2c7,0,12.17-.67,15.44-2a30.5,30.5,0,0,1,5.63-2,2.64,2.64,0,0,1,1.78.88,2.53,2.53,0,0,1,.92,1.77q0,5.63-17.77,36.68-15.68,27.51-28.36,56.07t-17.09,42.75q-4.41,14.2-6.73,16.57c-1.56,1.59-5.37,2.86-11.46,3.82a125.8,125.8,0,0,1-19.42,1.43c-3.84,0-5.75-1.21-5.75-3.64q0-5.42,9.37-26.24t45.63-61.37q21.32-24.19,29.28-39.34a96.79,96.79,0,0,1-12.23.89q-3.06,0-21.1-1.6T146.29,286q-10.51,0-15.41,4T123.18,303.05Z" transform="translate(0 -11)"/><path class="cls-7" d="M353.59,303.05a16.1,16.1,0,0,1-6.08,1.32c-1.83,0-2.74-.88-2.74-2.65a29.76,29.76,0,0,1,1.72-6.63l7-20.55a43.46,43.46,0,0,1,3.74-7.89,11.23,11.23,0,0,1,4.59-4.48Q364.38,261,372,260a117.87,117.87,0,0,1,15.13-1A153.85,153.85,0,0,1,409,261a149.49,149.49,0,0,0,21,2c7,0,12.17-.67,15.43-2a30.73,30.73,0,0,1,5.64-2,2.66,2.66,0,0,1,1.78.88,2.51,2.51,0,0,1,.91,1.77q0,5.63-17.76,36.68a626.88,626.88,0,0,0-28.36,56.07Q395,382.93,390.59,397.12t-6.74,16.57q-2.33,2.38-11.45,3.82A126,126,0,0,1,353,418.94q-5.76,0-5.76-3.64,0-5.42,9.37-26.24t45.64-61.37q21.31-24.19,29.28-39.34a96.91,96.91,0,0,1-12.23.89q-3.06,0-21.1-1.6T376.71,286q-10.51,0-15.41,4T353.59,303.05Z" transform="translate(0 -11)"/><path class="cls-8" d="M589.14,303.05a16.11,16.11,0,0,1-6.09,1.32c-1.82,0-2.73-.88-2.73-2.65a30.1,30.1,0,0,1,1.71-6.63l7-20.55a44.16,44.16,0,0,1,3.73-7.89,11.25,11.25,0,0,1,4.6-4.48q2.56-1.21,10.23-2.21a117.76,117.76,0,0,1,15.13-1,153.61,153.61,0,0,1,21.86,2,149.61,149.61,0,0,0,21,2c7,0,12.16-.67,15.43-2a30.73,30.73,0,0,1,5.64-2,2.62,2.62,0,0,1,1.77.88,2.53,2.53,0,0,1,.92,1.77q0,5.63-17.76,36.68a624.24,624.24,0,0,0-28.36,56.07q-12.69,28.56-17.09,42.75t-6.74,16.57q-2.32,2.38-11.45,3.82a126,126,0,0,1-19.42,1.43q-5.76,0-5.76-3.64,0-5.42,9.37-26.24t45.64-61.37q21.32-24.19,29.27-39.34a96.66,96.66,0,0,1-12.23.89q-3.06,0-21.1-1.6T612.26,286q-10.53,0-15.41,4T589.14,303.05Z" transform="translate(0 -11)"/></svg>