<?xml version="1.0" encoding="utf-8"?>
<!-- Generator: Adobe Illustrator 26.3.1, SVG Export Plug-In . SVG Version: 6.00 Build 0)  -->
<svg version="1.1" id="Layer_1" xmlns="http://www.w3.org/2000/svg" xmlns:xlink="http://www.w3.org/1999/xlink" x="0px" y="0px"
	 viewBox="0 0 800 800" style="enable-background:new 0 0 800 800;" xml:space="preserve">
<style type="text/css">
	.st0{fill:url(#SVGID_1_);}
	.st1{fill:url(#SVGID_00000026129670625119689960000012222758821700082621_);}
	.st2{fill:url(#SVGID_00000139979781575335421120000009642456817188760736_);}
	.st3{fill:url(#SVGID_00000094606858299673698990000011278935950649969816_);}
	.st4{fill:url(#SVGID_00000054259174656246398470000009932462116999722158_);}
	.st5{fill:url(#SVGID_00000049944642982468793130000004290542978055386270_);}
	.st6{fill:url(#SVGID_00000010271701698715004190000009829563759256451246_);}
	.st7{fill:url(#SVGID_00000163068987363332406970000016588611964900680346_);}
	.st8{fill:url(#SVGID_00000021081877976389912670000006798464820768868286_);}
	.st9{fill:url(#SVGID_00000108306604486850929230000005591855236963622312_);}
	.st10{fill:url(#SVGID_00000067218376604813544890000006403674818992972186_);}
	.st11{fill:url(#SVGID_00000103969193408961577310000014218100401293715102_);}
	.st12{fill:#d5d6d5;}
	.st13{fill:#d5d6d5;}
	.st14{clip-path:url(#SVGID_00000017510081834382159720000012374035545715852695_);}
	.st15{clip-path:url(#SVGID_00000070841095745388114090000017483706987875822014_);}
	.st16{fill:url(#SVGID_00000001629515063087209670000015211866788221659778_);}
	.st17{clip-path:url(#SVGID_00000109736015551360968610000007312442668145583293_);}
	.st18{fill:#060d18;}
</style>
<g>
	
		<linearGradient id="SVGID_1_" gradientUnits="userSpaceOnUse" x1="369.3952" y1="266.647" x2="506.3148" y2="498.1117" gradientTransform="matrix(1 0 0 -1 0 799.89)">
		<stop  offset="0" style="stop-color:#dfff8f"/>
		<stop  offset="1" style="stop-color:#c98b07"/>
	</linearGradient>
	<path class="st0" d="M393.2,448.5c0,0,37.6-36.4,56.2-88.2c0,0,17.9-5,29.3-9.6c-6.7,64.5-39.8,123-90,162.4
		c-6.7-1.1-11.5-2.3-11.5-2.3S391.9,470.3,393.2,448.5z"/>
	
		<linearGradient id="SVGID_00000116216854904194531380000002473472211215823496_" gradientUnits="userSpaceOnUse" x1="144.4088" y1="357.5206" x2="310.9967" y2="494.1791">
		<stop  offset="0" style="stop-color:#dfff8f"/>
		<stop  offset="1" style="stop-color:#c98b07"/>
	</linearGradient>
	<path style="fill:url(#SVGID_00000116216854904194531380000002473472211215823496_);" d="M182.3,322.8
		c20.1,7.7,95.4,23.2,95.4,23.2c12.3,32.2,35,97.6,35,97.6s-38.9,35.1-67.3,62.2c-49.7,3.1-99.5-25.9-99.5-25.9
		c-2.3-11.6-34.2-90.7-34.2-90.7S164.5,331.7,182.3,322.8z"/>
	
		<linearGradient id="SVGID_00000166655869731354623460000000943955034757046458_" gradientUnits="userSpaceOnUse" x1="235.3707" y1="599.3691" x2="503.0613" y2="599.3691" gradientTransform="matrix(1 0 0 -1 0 799.89)">
		<stop  offset="0" style="stop-color:#dfff8f"/>
		<stop  offset="1" style="stop-color:#c98b07"/>
	</linearGradient>
	<path style="fill:url(#SVGID_00000166655869731354623460000000943955034757046458_);" d="M332.4,265.1c-2.2-11.1-60.7-72-60.7-72
		s7.4-37.1,18.6-67.3c0,0,60.1,0.9,79.2,9.2c38,29.8,67.4,78.3,67.4,78.3s-11.2,56.4-15.1,62.1C393.1,267.3,332.4,265.1,332.4,265.1
		z"/>
	
		<linearGradient id="SVGID_00000092427249695797080560000016963700173222267558_" gradientUnits="userSpaceOnUse" x1="266.149" y1="263.2959" x2="388.6923" y2="263.2959" gradientTransform="matrix(1 0 0 -1 0 799.89)">
		<stop  offset="0" style="stop-color:#dfff8f"/>
		<stop  offset="1" style="stop-color:#c98b07"/>
	</linearGradient>
	<path style="fill:url(#SVGID_00000092427249695797080560000016963700173222267558_);" d="M377.1,510.8c0,0,4.9,1.2,11.5,2.3
		c-29.6,23.2-64.4,39-101.3,46.2c-7.1,1.4-14.2,2.4-21.2,3.1c10.6-7.5,20.5-15.4,20.5-15.4S357.2,527.2,377.1,510.8z"/>
	
		<linearGradient id="SVGID_00000164491890109638529270000010138603018393849216_" gradientUnits="userSpaceOnUse" x1="148.3178" y1="479.6194" x2="-60.7686" y2="622.7648" gradientTransform="matrix(1 0 0 -1 0 799.89)">
		<stop  offset="0" style="stop-color:#dfff8f"/>
		<stop  offset="1" style="stop-color:#c98b07"/>
	</linearGradient>
	<path style="fill:url(#SVGID_00000164491890109638529270000010138603018393849216_);" d="M182.3,322.8c-17.8,9-70.5,66.4-70.5,66.4
		c-5.2-3.5-69.4-30.2-69.4-30.2s-9.9-59.8-0.2-100.3c7.5-21,63.7-65.1,63.7-65.1c27.6,10.2,70,34.6,70,34.6
		C173.6,244.2,182.3,322.8,182.3,322.8z"/>
	
		<linearGradient id="SVGID_00000101102849687850955790000014920642804238948489_" gradientUnits="userSpaceOnUse" x1="143.1651" y1="560.3416" x2="324.4196" y2="802.0182" gradientTransform="matrix(1 0 0 -1 0 799.89)">
		<stop  offset="0" style="stop-color:#dfff8f"/>
		<stop  offset="1" style="stop-color:#c98b07"/>
	</linearGradient>
	<path style="fill:url(#SVGID_00000101102849687850955790000014920642804238948489_);" d="M176,228.1c0,0-42.4-24.4-70-34.6
		c-0.6-21,22.4-59,22.4-59s53.4-31.9,93.7-36.7c15.3,2.1,61.3,23.3,68.2,27.9C279,156,271.7,193,271.7,193
		C247.8,194.2,176,228.1,176,228.1z"/>
	
		<linearGradient id="SVGID_00000096771251527772759420000013597170515099477676_" gradientUnits="userSpaceOnUse" x1="70.4626" y1="312.112" x2="324.0146" y2="235.7571" gradientTransform="matrix(1 0 0 -1 0 799.89)">
		<stop  offset="0" style="stop-color:#dfff8f"/>
		<stop  offset="1" style="stop-color:#c98b07"/>
	</linearGradient>
	<path style="fill:url(#SVGID_00000096771251527772759420000013597170515099477676_);" d="M146.1,479.9c0,0,49.8,29,99.5,25.9
		c0,0,31.1,38.6,41.2,41.2c0,0-10,8-20.5,15.4c-55.8,5.7-111.8-8.5-158.1-40.1c-7.3-13.9-12.2-25.7-12.2-25.7
		C111.5,495.6,146.1,479.9,146.1,479.9z"/>
	
		<linearGradient id="SVGID_00000103976270711233876640000006509843858975477931_" gradientUnits="userSpaceOnUse" x1="338.0503" y1="531.1482" x2="400.314" y2="325.8103" gradientTransform="matrix(1 0 0 -1 0 799.89)">
		<stop  offset="0" style="stop-color:#dfff8f"/>
		<stop  offset="1" style="stop-color:#c98b07"/>
	</linearGradient>
	<path style="fill:url(#SVGID_00000103976270711233876640000006509843858975477931_);" d="M277.8,345.9
		c14.8-11.9,54.7-80.8,54.7-80.8s60.7,2.3,89.4,10.3c0,0,18.9,54.3,27.6,85c-18.6,51.8-56.2,88.2-56.2,88.2s-61.3-5.2-80.4-5
		C312.8,443.5,290.1,378.2,277.8,345.9z"/>
	
		<linearGradient id="SVGID_00000126281542686921733380000001991396220982839994_" gradientUnits="userSpaceOnUse" x1="72.7382" y1="642.2731" x2="271.4403" y2="739.7173" gradientTransform="matrix(1 0 0 -1 0 799.89)">
		<stop  offset="0" style="stop-color:#dfff8f"/>
		<stop  offset="1" style="stop-color:#c98b07"/>
	</linearGradient>
	<path style="fill:url(#SVGID_00000126281542686921733380000001991396220982839994_);" d="M128.3,134.5c-10.4,2-31.7,8.4-41.6,11.5
		c31.4-27.1,69.3-45.4,110-53.3c13.1-2.5,26.4-4,39.7-4.3c-6.1,2.6-12,5.8-14.4,9.3C181.7,102.6,128.3,134.5,128.3,134.5z"/>
	
		<linearGradient id="SVGID_00000030456414513085996760000006683977679587094684_" gradientUnits="userSpaceOnUse" x1="20.0407" y1="333.033" x2="129.1522" y2="333.033" gradientTransform="matrix(1 0 0 -1 0 799.89)">
		<stop  offset="0" style="stop-color:#dfff8f"/>
		<stop  offset="1" style="stop-color:#c98b07"/>
	</linearGradient>
	<path style="fill:url(#SVGID_00000030456414513085996760000006683977679587094684_);" d="M39,427.8c12.3,32.2,56.9,68.8,56.9,68.8
		s4.9,11.8,12.2,25.7c-39.9-27.1-70.6-65.8-88-110.9C34.5,426.2,39,427.8,39,427.8z"/>
	
		<linearGradient id="SVGID_00000056425913232286473100000014740969527874878354_" gradientUnits="userSpaceOnUse" x1="323.5111" y1="721.0293" x2="484.8229" y2="548.2996" gradientTransform="matrix(1 0 0 -1 0 799.89)">
		<stop  offset="0" style="stop-color:#dfff8f"/>
		<stop  offset="1" style="stop-color:#c98b07"/>
	</linearGradient>
	<path style="fill:url(#SVGID_00000056425913232286473100000014740969527874878354_);" d="M436.9,213.2c0,0-29.4-48.5-67.4-78.3
		c0,0-2.5-5.9-5.9-13.2c47.4,28.1,83.6,71.8,102.3,123.6C454.9,230.5,440.6,212.5,436.9,213.2z"/>
	
		<linearGradient id="SVGID_00000181055879888596425050000013158248551121833632_" gradientUnits="userSpaceOnUse" x1="23.2776" y1="549.1857" x2="23.2776" y2="355.6697" gradientTransform="matrix(1 0 0 -1 0 799.89)">
		<stop  offset="0" style="stop-color:#dfff8f"/>
		<stop  offset="1" style="stop-color:#c98b07"/>
	</linearGradient>
	<path style="fill:url(#SVGID_00000181055879888596425050000013158248551121833632_);" d="M42.2,258.6
		c-9.7,40.5,0.2,100.3,0.2,100.3c-2.3,13-3.5,68.9-3.5,68.9s-4.5-1.7-18.9-16.4C-4.3,348.4-0.6,278,30.2,218
		c-0.5,3.4-0.6,6.2-0.2,8.4C33.1,242.3,42.2,258.6,42.2,258.6z"/>
	<path class="st12" d="M42.3,358.9c-2.3,13-3.5,68.9-3.5,68.9c12.3,32.2,56.9,68.8,56.9,68.8c15.7-1,50.2-16.8,50.2-16.8
		c-2.3-11.6-34.2-90.7-34.2-90.7C106.5,385.6,42.3,358.9,42.3,358.9z"/>
	<path class="st13" d="M312.8,443.5c0,0-38.9,35.1-67.3,62.2c0,0,31.1,38.6,41.2,41.2c0,0,70.5-19.7,90.5-36.1
		c0,0,14.7-40.5,16-62.3C393.2,448.5,331.9,443.3,312.8,443.5z"/>
	<path class="st12" d="M332.2,265.1c-2.2-11.1-60.7-72-60.7-72c-23.9,1.1-95.6,35.1-95.6,35.1c-2.4,16,6.3,94.6,6.3,94.6
		c20.1,7.7,95.4,23.2,95.4,23.2C292.4,334,332.2,265.1,332.2,265.1z"/>
	<path class="st12" d="M475.4,280.7c-2.3-12-5.6-23.8-9.7-35.3c-11-14.8-25.3-32.9-29-32.2c0,0-11.2,56.4-15.1,62.1
		c0,0,18.9,54.3,27.6,85c0,0,17.9-5,29.3-9.6C481,327.4,479.9,303.8,475.4,280.7z"/>
	<path class="st12" d="M368.7,134.9c0,0-2.5-5.9-5.9-13.2c-38.4-22.8-82.5-34.4-127.1-33.3c-6.1,2.6-12,5.8-14.4,9.3
		c15.3,2,61.3,23.2,68.2,27.9C289.5,125.7,349.6,126.6,368.7,134.9z"/>
	<path class="st12" d="M105.8,193.5c-0.6-21,22.4-59,22.4-59c-10.4,2-31.7,8.4-41.6,11.5C63.3,166.1,44,190.5,30,218
		c-0.5,3.4-0.6,6.2-0.2,8.4c3.1,16,12.3,32.2,12.3,32.2C49.5,237.6,105.8,193.5,105.8,193.5z"/>
</g>
<g>
	<g>
		<defs>
			<rect id="SVGID_00000120517580308502068240000007103561983402018221_" x="237.5" y="233.6" width="558.1" height="544.7"/>
		</defs>
		<clipPath id="SVGID_00000142174226974422158960000007878408132750526652_">
			<use xlink:href="#SVGID_00000120517580308502068240000007103561983402018221_"  style="overflow:visible;"/>
		</clipPath>
		<g style="clip-path:url(#SVGID_00000142174226974422158960000007878408132750526652_);">
			<path class="st12" d="M517,391.1c-10.9,0.2-19.9-9-19.9-19.9V253.6c0-11.5,9.4-20.7,20.8-19.9c10.3,0.7,18.2,9.2,18.2,19.5v118.5
				C536.1,382.2,527.6,390.9,517,391.1"/>
			<path class="st12" d="M756.7,777.9l0.8-0.1c2-0.3,3.9-0.7,5.9-1.3c19.5-5.7,34.5-24.5,31.9-47.8l-4.5-40.2l0,0l-18.8-168
				c-9.5-84.8-81.2-148.9-166.5-148.9h-178c-85.3,0-157,64.1-166.5,148.9l-18.8,168l-4.5,40.2c-4.1,36.6,35.6,62.1,67.2,43.2
				l121.9-73c15.1-9.1,32.4-13.8,50-13.8h79.3c8.2,0,16.4,1,24.3,3.1c3.1,0.8,6.1,1.7,9,2.8c1.7,0.6,3.3,1.3,5,2c2,0.9,4,1.8,6,2.8
				c2,1,3.9,2.1,5.8,3.2l121.9,73c7.3,4.5,15.8,6.7,24.4,6.4h0.2C754.1,778.2,755.4,778.1,756.7,777.9"/>
		</g>
	</g>
	<g>
		<defs>
			<path id="SVGID_00000162351690503007465030000009972438793464852133_" d="M427.6,371.6c-85.3,0-157,64.1-166.5,148.9l-18.8,168
				c11,21.5,39.1,32.1,62.7,18l112.8-67.6c21-12.6,45.1-19.3,69.7-19.3h58.2c1.5,0,3.1,0,4.6,0.1l2.3,0.1c19.8,1,39.2,6.4,56.8,15.7
				c0.7,0.4,1.3,0.7,2,1.1c1.3,0.7,2.7,1.5,4,2.3l112.9,67.6c1.1,0.7,2.2,1.3,3.3,1.8c4.6,2.3,9.6,3.8,14.7,4.3h0.2
				c0.7,0.1,1.4,0.1,2.1,0.2l1.2,0c17.2,0.4,33.2-9.1,41.1-24.4l-18.8-168c-9.3-83.3-78.7-146.9-162.5-148.9c-1.3,0-2.7,0-4,0
				L427.6,371.6z"/>
		</defs>
		<clipPath id="SVGID_00000031176525336617548530000003421481837069437875_">
			<use xlink:href="#SVGID_00000162351690503007465030000009972438793464852133_"  style="overflow:visible;"/>
		</clipPath>
		<g style="clip-path:url(#SVGID_00000031176525336617548530000003421481837069437875_);">
			
				<linearGradient id="SVGID_00000031915455657987119000000014823364994993936550_" gradientUnits="userSpaceOnUse" x1="4396.6797" y1="-2615.3103" x2="4397.2588" y2="-2615.3103" gradientTransform="matrix(0 446.19 -446.19 0 -1166408.75 -1961347.875)">
				<stop  offset="0" style="stop-color:#dfff8f"/>
				<stop  offset="1" style="stop-color:#c98b07"/>
			</linearGradient>
			
				<rect x="242.3" y="371.6" style="fill:url(#SVGID_00000031915455657987119000000014823364994993936550_);" width="548.6" height="349"/>
		</g>
	</g>
	<g>
		<defs>
			<rect id="SVGID_00000164483549938490262080000002424184856462334118_" x="237.5" y="233.6" width="558.1" height="544.7"/>
		</defs>
		<clipPath id="SVGID_00000050635767355348415740000014009697669281421477_">
			<use xlink:href="#SVGID_00000164483549938490262080000002424184856462334118_"  style="overflow:visible;"/>
		</clipPath>
		<g style="clip-path:url(#SVGID_00000050635767355348415740000014009697669281421477_);">
			<path class="st12" d="M453.7,503.8v17.1c0,7.9-6.4,14.3-14.3,14.3c0,0,0,0,0,0h-19.7c-7.9,0-14.3,6.4-14.3,14.3c0,0,0,0,0,0v24.4
				c0,7.9-6.4,14.3-14.3,14.3h-17.2c-7.9,0-14.3-6.4-14.3-14.3l0,0v-24.4c0-7.9-6.4-14.3-14.3-14.3l0,0h-19.7
				c-7.9,0-14.3-6.4-14.3-14.3c0,0,0,0,0,0v-17.1c0-0.1,0-0.3,0-0.4c0.2-7.7,6.6-13.9,14.3-13.9h19.7c7.9,0,14.3-6.4,14.3-14.3
				c0,0,0,0,0,0v-15c0-7.9,6.4-14.3,14.3-14.3h17.2c7.9,0,14.3,6.4,14.3,14.3l0,0v15c0,7.9,6.4,14.3,14.3,14.3c0,0,0,0,0,0h19.7
				c7.7,0,14.1,6.1,14.3,13.9C453.7,503.5,453.7,503.6,453.7,503.8"/>
			<path class="st18" d="M674.1,457.2c0,14.8-12,26.8-26.8,26.8s-26.8-12-26.8-26.8c0-2.2,0.3-4.5,0.9-6.7
				c3.7-14.3,18.3-23,32.6-19.3c9.5,2.4,16.8,9.8,19.3,19.3C673.8,452.7,674.1,454.9,674.1,457.2"/>
			<path class="st18" d="M674.1,576.9c0,14.8-12,26.8-26.8,26.8s-26.8-12-26.8-26.8c0-2.2,0.3-4.5,0.9-6.7
				c3.7-14.3,18.3-23,32.6-19.3c9.5,2.4,16.8,9.8,19.3,19.3C673.8,572.4,674.1,574.7,674.1,576.9"/>
			<path class="st18" d="M734,511.6c0,14.8-12,26.8-26.8,26.8s-26.8-12-26.8-26.8c0-2.2,0.3-4.5,0.9-6.7c3.7-14.3,18.3-23,32.6-19.3
				c9.5,2.4,16.8,9.8,19.3,19.3C733.7,507.1,734,509.4,734,511.6"/>
			<path class="st18" d="M614.3,511.6c0,14.8-12,26.8-26.8,26.8c-14.8,0-26.8-12-26.8-26.8c0-2.2,0.3-4.5,0.9-6.7
				c3.7-14.3,18.3-23,32.6-19.3c9.5,2.4,16.8,9.8,19.3,19.3C614,507.1,614.3,509.4,614.3,511.6"/>
		</g>
	</g>
</g>
</svg>
